<svg id="Layer_1" data-name="Layer 1" xmlns="http://www.w3.org/2000/svg" viewBox="0 0 534 438"><defs><style>.cls-1{fill:#a3150a;}.cls-2{fill:#f1ecdd;}.cls-3{fill:#0c0440;}</style></defs><circle class="cls-1" cx="258.9" cy="219" r="180.89"/><ellipse class="cls-2" cx="258.9" cy="219" rx="167.1" ry="164.5"/><ellipse class="cls-3" cx="166.75" cy="247.99" rx="52.04" ry="52.01"/><path class="cls-3" d="M211,121.58h34a3.49,3.49,0,0,1,3.36,3.6v4.75a3.48,3.48,0,0,1-3.36,3.6H211a3.49,3.49,0,0,1-3.36-3.6v-4.75A3.49,3.49,0,0,1,211,121.58Z"/><path class="cls-3" d="M265,261.09l-72.4-79.72a2.12,2.12,0,0,1,0-2.47h0l8.15-7.4a1.63,1.63,0,0,1,2.47.19l72.4,79.72a1.83,1.83,0,0,1,0,2.28l-.18.19-8.14,7.4A1.78,1.78,0,0,1,265,261.09Z"/><path class="cls-3" d="M201.09,159.35H305.87a1.65,1.65,0,0,1,1.6,1.71V171.5a1.65,1.65,0,0,1-1.6,1.71H201.09a1.65,1.65,0,0,1-1.59-1.71V161.06A1.65,1.65,0,0,1,201.09,159.35Z"/><path class="cls-3" d="M261.27,250.65l49.91-109.33a1.71,1.71,0,0,1,2.3-.95l9.21,4.17a1.72,1.72,0,0,1,.88,2.28V147L273.66,256.34a1.71,1.71,0,0,1-2.3,1l-9.21-4.17a2.26,2.26,0,0,1-.88-2.47Z"/><path class="cls-3" d="M288.35,138.66h47.44a2.43,2.43,0,0,1,2.3,2.47v6.45a2.43,2.43,0,0,1-2.3,2.47H288.7a4.87,4.87,0,0,1-4.6-4.94h0v-1.9A4.36,4.36,0,0,1,288.35,138.66Z"/><ellipse class="cls-3" cx="351.36" cy="247.99" rx="52.04" ry="52.01"/><ellipse class="cls-3" cx="167.81" cy="247.42" rx="39.82" ry="39.29"/><path class="cls-3" d="M160.91,262.42h0a7.25,7.25,0,0,0,9.56-4.18l50.8-127.74a4.44,4.44,0,0,0-2-5.32.18.18,0,0,1-.18-.19l-6.72-2.65a4.16,4.16,0,0,0-5.31,2.27L156.66,251.79a8.34,8.34,0,0,0,4.07,10.44A.18.18,0,0,1,160.91,262.42Z"/><ellipse class="cls-3" cx="351.54" cy="247.99" rx="39.82" ry="39.29"/><path class="cls-3" d="M311.36,158.4l45,91.87a8.41,8.41,0,0,1-3.19,10.63c-.17,0-.35.19-.53.19h0a6.49,6.49,0,0,1-8.85-3l-45.49-93.2a1.14,1.14,0,0,1,.36-1.33h0l11.32-5.5c.36-.38,1.07-.19,1.42.38Z"/><path class="cls-3" d="M349.77,262.23H269.06a4.55,4.55,0,0,1-4.43-4.75v-4a4.53,4.53,0,0,1,4.25-4.75h83.54a3.88,3.88,0,0,1,3.72,4v2.08A6.56,6.56,0,0,1,349.77,262.23Z"/><ellipse class="cls-3" cx="265.34" cy="251.22" rx="15.75" ry="16.51"/></svg>