<svg id="Layer_1" data-name="Layer 1" xmlns="http://www.w3.org/2000/svg" viewBox="0 0 534 438"><defs><style>.cls-1{fill:#f1ecdd;}.cls-2{fill:none;stroke:#71cca0;stroke-miterlimit:10;stroke-width:1.99px;}.cls-3{fill:#a3150a;}.cls-4{fill:#71cca0;}.cls-5{fill:#0c0440;}</style></defs><ellipse class="cls-1" cx="258.9" cy="204.6" rx="167.1" ry="164.5"/><polygon class="cls-2" points="102.7 253.2 106.5 253.2 106.5 223 108 223 108 194.8 116 194.8 116 191.3 114.1 191.3 114 188 116 188 116 183.6 120.2 183.6 120.2 186.4 121.5 186.7 121.5 189.2 123.4 189 126.8 182.1 131.8 178.6 141.8 178.6 145.9 182.1 149.3 189.2 151.8 189.5 151.8 186.4 153.4 185.9 153.4 183.1 156.9 183.1 156.9 187.2 158.4 187.2 158.4 190.7 156.6 190.7 156.8 194.5 164.8 194.3 164.8 207.5 166.2 207.5 166.2 222.7 167.6 223 167.6 249.9 169.1 249.6 169.1 218.4 167.5 217.9 167.3 214.6 169.1 214.6 169.1 210.8 171.9 211 171.9 192 169.6 190 171.9 189.5 171.9 181.6 174.8 171.2 178.4 165.9 180.9 165.9 180.9 162.1 183.4 162.1 183.4 157.5 185.1 157.5 185.1 150.1 183.5 150.1 183.4 145.8 185.1 145.8 186.5 141.3 186.5 123.3 184.4 123.3 184.4 121.1 186.5 121.1 186.5 117.3 187.6 117.3 187.6 121.1 189.1 121.1 189.1 123.1 187.6 123.1 187.5 140.9 189.1 145.5 190.4 145.5 190.4 149.1 188.7 149.2 188.8 157.8 190.2 157.8 190.2 159.9 192.1 159.8 192.1 165.1 194.1 164.8 197.1 168.4 200.5 175.8 200.9 181.7 202.4 181.7 202.4 192.1 201.1 192.3 201.5 212.9 205.1 212.9 205.1 215.6 206.3 215.6 206.3 217.9 204.4 218 204.9 250 207.7 249.9 207.7 212 207.7 209.6 205.9 209.7 205.7 206.4 207.3 206.1 208.3 198.8 210.1 191.9 234.7 192.5 235 174.5 233 174.6 235.9 168.6 235.9 148.3 234 147.9 236.9 144.4 236.9 130.5 235 130.3 237.9 127.7 237.9 119.7 238.7 119.5 238.7 109.8 240 109.3 240 100.9 241 100.9 241 96 241.6 96 241.6 86.6 244.4 86.6 244.4 90.1 242.3 90.2 242.3 96 243.2 95.9 243 100.3 243.9 100.3 243.7 108.2 244.8 108.3 244.8 118.9 245.8 118.8 245.8 127.1 247.8 129.5 245.4 129.7 245.5 143.5 248.2 147.1 245.6 147.5 245.7 167.9 249.5 173.4 246.3 173.7 246.4 192.4 273.3 192.5 275.2 199.4 275.8 205.3 277.5 205.3 277.5 208.4 275.8 208.3 275.9 253.2 279 253.2 279 183.4 278 183.4 277.9 180 281.7 180 281.7 183.4 280.2 183.4 280.2 192.4 293.3 192.2 293.3 184.5 297.7 179.4 297.7 171.5 296.2 171.6 296.2 168.2 298.8 167.9 298.8 161.8 300 159.7 300.2 143.5 301.4 143.6 301.4 146.8 304.4 146.9 304.4 152 301.2 152 301.2 159.5 302.6 161.3 302.8 167.8 304.7 167.8 304.7 171.1 302.8 171.1 302.7 179.3 306.9 184.4 306.9 192.8 315 192.5 315 188.3 313.6 188.3 314.6 185.8 314.8 173.2 313 173 315 168.9 315 162.6 312.8 162.3 316.7 155 316.7 143.7 314.8 143.7 318.5 136.8 318.5 128.5 319.7 128.5 319.7 120 320.4 119.9 320.4 102.1 321.4 102.1 321.4 105 324.4 105.1 324.4 111.1 321.4 111 321.5 119.5 322.8 119.7 322.7 128.1 324.4 128.1 324.4 136.5 326.9 142.9 324.3 143.1 324.3 154.2 327.9 161.2 325.5 161.3 325.6 169 328.2 172.4 325.7 172.5 326 185.4 327.9 187.7 325.8 188 325.8 192.5 334.6 192.5 334.6 184.1 339 178.8 339 172 337.1 172 339.7 167 339.7 160.9 340.6 160.6 340.3 143.3 341.1 143.2 341.1 146.7 344.4 146.8 344.4 152 341.2 152.1 341.3 160.4 342.5 160.4 342.5 167 345.1 171.4 342.9 171.6 342.9 178.4 347.4 185 347.4 192.5 361.5 192.5 361.5 185.3 360.3 185.3 360.2 180.5 363.9 180.7 363.9 253.2 366.8 253.2 366.8 206.3 365.6 206.3 365.7 199.7 368.3 197.2 368.3 193.6 369.2 193.5 369.2 197.6 371.3 200.6 371.3 193.9 373.4 193.8 373.4 191.2 376.1 190.9 376.1 186.6 380.1 186.6 379.9 162.2 387.2 162.2 387.2 170.3 381.6 170.5 381.6 186.1 386.1 186.3 386.2 190.3 388.1 190.3 388.1 193.1 390.2 193 390.2 201 393.1 197 393.1 193.1 394.3 193.1 394.3 197.7 396 199.6 396 206.9 394.4 206.9 394.7 253.2 397.4 252.5 397.9 172.3 396.2 171.4 396.3 168.6 406.8 163.9 406.8 160.8 409.9 160.8 409.9 163.6 419.2 169.9 419.2 172.9 417.6 173.3 418 253.2 102.7 253.2"/><path class="cls-3" d="M100,243.4a168.27,168.27,0,0,1-4.9-39.9c0-90.8,74.1-164.6,165.2-164.6s165.2,73.8,165.2,164.6a162.08,162.08,0,0,1-4.9,39.9h14.6a178.94,178.94,0,0,0,4.6-39.9c0-103.9-83.1-178.7-179.3-178.7C161.6,24.8,81.2,105,81.2,203.5a166.76,166.76,0,0,0,4.6,39.9Z"/><path class="cls-4" d="M421,114c12.7,24.9,27.1,64.1,22,110.4a170.47,170.47,0,0,1-3.4,20,9.59,9.59,0,0,1,4.4,2.7l7.5,7.5a194.29,194.29,0,0,0,6.8-50.8,199.39,199.39,0,0,0-24-94.4L467,88l-9-13c-12.2,8.1-24.4,16.4-36.6,24.7L415,104l.3.6A27.31,27.31,0,0,0,417,107l.8,1.2C419.1,110.4,420.7,113.4,421,114Z"/><path class="cls-3" d="M403.4,285.6a165.54,165.54,0,0,1-286.6.2h-16c29.9,57.4,90.1,96.9,159.4,96.9a180,180,0,0,0,159.4-96.9h-16Z"/><path class="cls-4" d="M434.8,297l-10.5-10.4A184.2,184.2,0,0,1,260.3,387a203.23,203.23,0,0,1-25.8-1.7c-4.9-.7-9.7-1.5-13.1-2.2a190.65,190.65,0,0,1-53.5-20.8c-2.1-1.2-3.4-1.8-4.7-1.7-2.2.3-3.6,2.3-4.1,2.9-2.6,3.6-13.8,14.3-31.2,30.5l-16,16,11,10,18-18c8.4-8.4,16.6-16.8,24.9-25.1,41.3,21.4,76,24.2,94.5,24.2a206,206,0,0,0,27.2-1.9A201.76,201.76,0,0,0,369,368.1,206.58,206.58,0,0,0,434.8,297Z"/><path class="cls-4" d="M510,339l-77.2-76.7L16,263V247l419.7,1.3a7,7,0,0,1,5.1,2.2L519,329Z"/><path class="cls-5" d="M482,407c.1-23,.2-46.1.4-69.1l-57.1-57.1L51,281V266l377,.7a7,7,0,0,1,5.1,2.2l61.2,61.3a7.44,7.44,0,0,1,2,5.1c-.1,23.9-.2,47.9-.2,71.8H482Z"/><ellipse class="cls-5" cx="274.4" cy="227.1" rx="29.4" ry="27.4"/><path class="cls-5" d="M299.4,160.5h19.2a1.9,1.9,0,0,1,1.9,1.9v2.5a1.9,1.9,0,0,1-1.9,1.9H299.4a1.9,1.9,0,0,1-1.9-1.9v-2.5A1.9,1.9,0,0,1,299.4,160.5Z"/><path class="cls-5" d="M329.9,234,289,192a1.05,1.05,0,0,1,0-1.3h0l4.6-3.9a1,1,0,0,1,1.4.1l40.9,42a.91.91,0,0,1,0,1.2l-.1.1-4.6,3.9A1.06,1.06,0,0,1,329.9,234Z"/><path class="cls-5" d="M293.8,180.4H353a.9.9,0,0,1,.9.9v5.5a.9.9,0,0,1-.9.9H293.8a.9.9,0,0,1-.9-.9v-5.5A.9.9,0,0,1,293.8,180.4Z"/><path class="cls-5" d="M327.8,228.5,356,170.9a1,1,0,0,1,1.3-.5l5.2,2.2a.88.88,0,0,1,.5,1.2v.1l-28.2,57.6a1,1,0,0,1-1.3.5l-5.2-2.2a1.14,1.14,0,0,1-.5-1.3Z"/><path class="cls-5" d="M343.1,169.5h26.8a1.32,1.32,0,0,1,1.3,1.3v3.4a1.32,1.32,0,0,1-1.3,1.3H343.3a2.65,2.65,0,0,1-2.6-2.6h0v-1A2.37,2.37,0,0,1,343.1,169.5Z"/><ellipse class="cls-5" cx="378.7" cy="227.1" rx="29.4" ry="27.4"/><ellipse class="cls-5" cx="275" cy="226.8" rx="22.5" ry="20.7"/><path class="cls-5" d="M271.1,234.7h0a4.2,4.2,0,0,0,5.4-2.2l28.7-67.3a2.27,2.27,0,0,0-1.1-2.8.1.1,0,0,1-.1-.1l-3.8-1.4a2.41,2.41,0,0,0-3,1.2l-28.5,67a4.27,4.27,0,0,0,2.3,5.5A.1.1,0,0,1,271.1,234.7Z"/><ellipse class="cls-5" cx="378.8" cy="227.1" rx="22.5" ry="20.7"/><path class="cls-5" d="M356.1,179.9l25.4,48.4a4.27,4.27,0,0,1-1.8,5.6c-.1,0-.2.1-.3.1h0a3.79,3.79,0,0,1-5-1.6l-25.7-49.1a.57.57,0,0,1,.2-.7h0l6.4-2.9a.55.55,0,0,1,.8.2Z"/><path class="cls-5" d="M377.8,234.6H332.2a2.48,2.48,0,0,1-2.5-2.5V230a2.46,2.46,0,0,1,2.4-2.5h47.2a2.11,2.11,0,0,1,2.1,2.1v1.1A3.55,3.55,0,0,1,377.8,234.6Z"/><ellipse class="cls-5" cx="330.1" cy="228.8" rx="8.9" ry="8.7"/></svg>